<?xml version="1.0" encoding="UTF-8" standalone="no"?>
<svg width="400px" height="400px" viewBox="0 0 400 400" version="1.1" xmlns="http://www.w3.org/2000/svg" xmlns:xlink="http://www.w3.org/1999/xlink">
    <!-- Generator: Sketch 3.8.3 (29802) - http://www.bohemiancoding.com/sketch -->
    <title>Page 1</title>
    <desc>Created with Sketch.</desc>
    <defs></defs>
    <g id="Page-1" stroke="none" stroke-width="1" fill="none" fill-rule="evenodd">
        <g id="Fill-1" fill="#000000">
            <path d="M283.913367,233.590524 C283.913367,236.300249 283.361746,238.880798 282.405636,241.24788 C281.825087,240.669825 281.154264,240.194015 280.426085,239.848878 C276.124339,236.355611 256.251022,216.105237 237.791671,196.757107 L283.550274,152.358105 C283.759751,153.533167 283.913367,154.727182 283.913367,155.962594 L283.913367,233.590524 Z M263.283441,254.226933 L136.562743,254.226933 C133.215112,254.226933 130.096908,253.350623 127.300898,251.939651 L173.086434,206.539651 L195.466484,228.041895 C196.873965,229.395511 198.689426,230.072319 200.508878,230.072319 C202.336309,230.072319 204.162244,229.391521 205.577207,228.016958 L227.3398,206.900748 C254.983691,235.945137 266.478953,247.765087 272.483441,251.966085 C269.6999,253.367082 266.608628,254.226933 263.283441,254.226933 L263.283441,254.226933 Z M115.928828,233.590524 L115.928828,155.962594 C115.928828,154.604489 116.078454,153.291272 116.324339,152.007481 L162.587681,196.455362 L117.426085,241.231421 C116.484439,238.864838 115.928828,236.292269 115.928828,233.590524 L115.928828,233.590524 Z M136.562743,135.327681 L263.283441,135.327681 C268.081446,135.327681 272.430075,137.028429 275.933815,139.771571 C275.62808,139.990524 275.273466,140.111721 274.994165,140.382544 L200.480449,212.679302 L125.202643,140.353616 C124.874464,140.027431 124.454015,139.886284 124.074464,139.63591 C127.551272,136.971571 131.846534,135.327681 136.562743,135.327681 L136.562743,135.327681 Z M199.918354,0 C89.5013965,0 0.000149625935,89.5057357 0.000149625935,199.922195 C0.000149625935,310.344638 89.5013965,399.84389 199.918354,399.84389 C310.336808,399.84389 399.84005,310.344638 399.84005,199.922195 C399.84005,89.5057357 310.336808,0 199.918354,0 L199.918354,0 Z"></path>
        </g>
    </g>
</svg>