<?xml version="1.0" encoding="UTF-8" standalone="no"?>
<svg width="400px" height="400px" viewBox="0 0 400 400" version="1.1" xmlns="http://www.w3.org/2000/svg" xmlns:xlink="http://www.w3.org/1999/xlink">
    <!-- Generator: Sketch 3.8.3 (29802) - http://www.bohemiancoding.com/sketch -->
    <title>Page 1</title>
    <desc>Created with Sketch.</desc>
    <defs></defs>
    <g id="Page-1" stroke="none" stroke-width="1" fill="none" fill-rule="evenodd">
        <g id="Fill-1" fill="#000000">
            <path d="M199.925287,289.475661 C199.925287,289.475661 137.366185,208.148978 137.366185,173.294613 C137.366185,138.440249 165.070923,110.735511 199.925287,110.735511 C234.779651,110.735511 262.484389,138.440249 262.484389,173.294613 C262.484389,208.148978 199.925287,289.475661 199.925287,289.475661 M199.923292,0.000349127182 C89.5153117,0.000349127182 9.97506235e-05,89.5070823 9.97506235e-05,199.927032 C9.97506235e-05,310.339002 89.5153117,399.843741 199.923292,399.843741 C310.337257,399.843741 399.850474,310.339002 399.850474,199.927032 C399.850474,89.5070823 310.337257,0.000349127182 199.923292,0.000349127182 M199.925287,146.483641 C184.732269,146.483641 173.114314,158.101596 173.114314,173.294613 C173.114314,188.487631 184.732269,200.105586 199.925287,200.105586 C215.118304,200.105586 226.736259,188.487631 226.736259,173.294613 C226.736259,158.101596 215.118304,146.483641 199.925287,146.483641"></path>
        </g>
    </g>
</svg>