<?xml version="1.0" encoding="UTF-8" standalone="no"?>
<svg width="400px" height="400px" viewBox="0 0 400 400" version="1.1" xmlns="http://www.w3.org/2000/svg" xmlns:xlink="http://www.w3.org/1999/xlink">
    <!-- Generator: Sketch 3.8.3 (29802) - http://www.bohemiancoding.com/sketch -->
    <title>Page 1</title>
    <desc>Created with Sketch.</desc>
    <defs></defs>
    <g id="Page-1" stroke="none" stroke-width="1" fill="none" fill-rule="evenodd">
        <g id="Fill-1" fill="#000000">
            <path d="M199.926384,250.004589 C193.841097,250.004589 188.905935,254.937257 188.905935,261.023042 C188.905935,267.108329 193.841097,272.043491 199.926384,272.043491 C206.01217,272.043491 210.944838,267.108329 210.944838,261.023042 C210.944838,254.937257 206.01217,250.004589 199.926384,250.004589 L199.926384,250.004589 Z M155.966284,239.097357 L243.884489,239.097357 L243.884489,126.158204 L155.966284,126.158204 L155.966284,239.097357 Z M260.91192,270.143741 C260.91192,281.039002 252.081496,289.871421 241.186733,289.871421 L158.666534,289.871421 C147.771272,289.871421 138.938354,281.039002 138.938354,270.143741 L138.938354,127.819052 C138.938354,116.924289 147.771272,108.091372 158.666534,108.091372 L241.186733,108.091372 C252.081496,108.091372 260.91192,116.924289 260.91192,127.819052 L260.91192,270.143741 Z M199.923392,9.97506235e-05 C89.5154115,9.97506235e-05 0.000199501247,89.5073317 0.000199501247,199.927282 C0.000199501247,310.339252 89.5154115,399.84399 199.923392,399.84399 C310.337357,399.84399 399.850574,310.339252 399.850574,199.927282 C399.850574,89.5073317 310.337357,9.97506235e-05 199.923392,9.97506235e-05 L199.923392,9.97506235e-05 Z"></path>
        </g>
    </g>
</svg>