<?xml version="1.0" encoding="UTF-8" standalone="no"?>
<svg width="548px" height="69px" viewBox="0 0 548 69" version="1.1" xmlns="http://www.w3.org/2000/svg" xmlns:xlink="http://www.w3.org/1999/xlink">
    <!-- Generator: Sketch 3.8.3 (29802) - http://www.bohemiancoding.com/sketch -->
    <title>Page 1</title>
    <desc>Created with Sketch.</desc>
    <defs>
        <polygon id="path-1" points="0 68.254 547.894 68.254 547.894 0 0 0"></polygon>
    </defs>
    <g id="Page-1" stroke="none" stroke-width="1" fill="none" fill-rule="evenodd">
        <g>
            <path d="M92.0611,12.7424 C92.8051,12.0754 93.1771,11.0164 93.1771,9.5664 C93.1771,8.1164 92.7931,7.1214 92.0231,6.5834 C91.2531,6.0434 89.9051,5.7744 87.9801,5.7744 L83.4761,5.7744 L83.4761,13.7434 L87.8651,13.7434 C89.9181,13.7434 91.3161,13.4104 92.0611,12.7424 L92.0611,12.7424 Z M99.2981,9.5474 C99.2981,13.8584 97.5911,16.6434 94.1791,17.9014 L100.9921,27.5254 L93.6011,27.5254 L87.6341,18.9404 L83.4761,18.9404 L83.4761,27.5254 L77.4711,27.5254 L77.4711,0.6164 L87.6721,0.6164 C91.8551,0.6164 94.8391,1.3224 96.6231,2.7334 C98.4061,4.1454 99.2981,6.4164 99.2981,9.5474 L99.2981,9.5474 Z" id="Fill-1" fill="#1C1C1A"></path>
            <mask id="mask-2" fill="white">
                <use xlink:href="#path-1"></use>
            </mask>
            <g id="Clip-4"></g>
            <polygon id="Fill-3" fill="#1C1C1A" mask="url(#mask-2)" points="107.768 27.525 113.773 27.525 113.773 0.616 107.768 0.616"></polygon>
            <path d="M135.0611,22.2125 C138.0121,22.2125 140.4251,21.0455 142.2981,18.7095 L146.1481,22.6745 C143.0941,26.1135 139.4941,27.8335 135.3501,27.8335 C131.2051,27.8335 127.7911,26.5245 125.1101,23.9065 C122.4271,21.2885 121.0871,17.9845 121.0871,13.9935 C121.0871,10.0035 122.4531,6.6735 125.1871,4.0035 C127.9201,1.3345 131.2631,-0.0005 135.2151,-0.0005 C139.6291,-0.0005 143.3241,1.6815 146.3021,5.0425 L142.5681,9.2775 C140.6681,6.9165 138.3071,5.7365 135.4841,5.7365 C133.2261,5.7365 131.2941,6.4745 129.6911,7.9495 C128.0871,9.4255 127.2851,11.4145 127.2851,13.9165 C127.2851,16.4185 128.0411,18.4275 129.5561,19.9415 C131.0701,21.4555 132.9051,22.2125 135.0611,22.2125" id="Fill-5" fill="#1C1C1A" mask="url(#mask-2)"></path>
            <polygon id="Fill-6" fill="#1C1C1A" mask="url(#mask-2)" points="169.9005 0.616 175.9055 0.616 175.9055 27.525 169.9005 27.525 169.9005 16.938 159.1985 16.938 159.1985 27.525 153.1925 27.525 153.1925 0.616 159.1985 0.616 159.1985 11.857 169.9005 11.857"></polygon>
            <path d="M195.8852,8.6232 L192.4972,16.4382 L199.2342,16.4382 L195.8852,8.6232 Z M204.0082,27.5252 L201.5062,21.7122 L190.2262,21.7122 L187.7242,27.5252 L181.3332,27.5252 L192.9592,0.6162 L198.7722,0.6162 L210.3982,27.5252 L204.0082,27.5252 Z" id="Fill-7" fill="#1C1C1A" mask="url(#mask-2)"></path>
            <path d="M230.3781,12.7424 C231.1221,12.0754 231.4941,11.0164 231.4941,9.5664 C231.4941,8.1164 231.1091,7.1214 230.3391,6.5834 C229.5691,6.0434 228.2221,5.7744 226.2971,5.7744 L221.7931,5.7744 L221.7931,13.7434 L226.1821,13.7434 C228.2351,13.7434 229.6331,13.4104 230.3781,12.7424 M237.6151,9.5474 C237.6151,13.8584 235.9081,16.6434 232.4951,17.9014 L239.3091,27.5254 L231.9181,27.5254 L225.9511,18.9404 L221.7931,18.9404 L221.7931,27.5254 L215.7881,27.5254 L215.7881,0.6164 L225.9891,0.6164 C230.1721,0.6164 233.1561,1.3224 234.9401,2.7334 C236.7231,4.1454 237.6151,6.4164 237.6151,9.5474" id="Fill-8" fill="#1C1C1A" mask="url(#mask-2)"></path>
            <path d="M262.2336,20.1336 C263.7086,18.7476 264.4466,16.7336 264.4466,14.0896 C264.4466,11.4466 263.7086,9.4126 262.2336,7.9876 C260.7576,6.5636 258.4926,5.8516 255.4386,5.8516 L252.0896,5.8516 L252.0896,22.2126 L255.9006,22.2126 C258.6466,22.2126 260.7576,21.5196 262.2336,20.1336 M266.6416,4.1386 C269.2076,6.4866 270.4916,9.7526 270.4916,13.9356 C270.4916,18.1196 269.2396,21.4296 266.7376,23.8676 C264.2356,26.3066 260.4176,27.5246 255.2846,27.5246 L246.0846,27.5246 L246.0846,0.6156 L255.5926,0.6156 C260.3916,0.6156 264.0746,1.7896 266.6416,4.1386" id="Fill-9" fill="#1C1C1A" mask="url(#mask-2)"></path>
            <polygon id="Fill-10" fill="#1C1C1A" mask="url(#mask-2)" points="290.432 27.525 290.432 0.616 296.437 0.616 296.437 22.174 307.91 22.174 307.91 27.525"></polygon>
            <path d="M314.4343,26.8514 C313.7803,26.1974 313.4533,25.3954 313.4533,24.4454 C313.4533,23.4964 313.7803,22.6934 314.4343,22.0394 C315.0883,21.3844 315.8903,21.0574 316.8403,21.0574 C317.7893,21.0574 318.5923,21.3844 319.2463,22.0394 C319.9013,22.6934 320.2283,23.4964 320.2283,24.4454 C320.2283,25.3954 319.9013,26.1974 319.2463,26.8514 C318.5923,27.5054 317.7893,27.8334 316.8403,27.8334 C315.8903,27.8334 315.0883,27.5054 314.4343,26.8514" id="Fill-11" fill="#1C1C1A" mask="url(#mask-2)"></path>
            <path d="M341.4393,5.7745 L341.4393,0.6155 L355.4523,0.6155 L355.4523,18.1705 C355.4523,21.3785 354.6243,23.7785 352.9693,25.3695 C351.3133,26.9605 349.1893,27.7555 346.5983,27.7555 C343.3643,27.7555 340.5403,26.5115 338.1283,24.0215 L341.2473,19.7105 C342.8633,21.4555 344.5573,22.3285 346.3283,22.3285 C347.1753,22.3285 347.9003,22.0005 348.5033,21.3465 C349.1063,20.6915 349.4083,19.7105 349.4083,18.4015 L349.4083,5.7745 L341.4393,5.7745 Z" id="Fill-12" fill="#1C1C1A" mask="url(#mask-2)"></path>
            <path d="M384.7094,13.9165 C384.7094,11.5175 383.9394,9.4705 382.3994,7.7765 C380.8594,6.0825 378.9664,5.2355 376.7214,5.2355 C374.4754,5.2355 372.5834,6.0825 371.0434,7.7765 C369.5034,9.4705 368.7334,11.5175 368.7334,13.9165 C368.7334,16.3165 369.5034,18.3565 371.0434,20.0375 C372.5834,21.7185 374.4754,22.5585 376.7214,22.5585 C378.9664,22.5585 380.8594,21.7185 382.3994,20.0375 C383.9394,18.3565 384.7094,16.3165 384.7094,13.9165 M386.7494,23.8105 C384.0294,26.4665 380.6794,27.7945 376.7024,27.7945 C372.7234,27.7945 369.3744,26.4665 366.6544,23.8105 C363.9334,21.1535 362.5744,17.8495 362.5744,13.8975 C362.5744,9.9455 363.9334,6.6405 366.6544,3.9845 C369.3744,1.3285 372.7234,-0.0005 376.7024,-0.0005 C380.6794,-0.0005 384.0294,1.3285 386.7494,3.9845 C389.4694,6.6405 390.8304,9.9455 390.8304,13.8975 C390.8304,17.8495 389.4694,21.1535 386.7494,23.8105" id="Fill-13" fill="#1C1C1A" mask="url(#mask-2)"></path>
            <polygon id="Fill-14" fill="#1C1C1A" mask="url(#mask-2)" points="414.9288 0.616 420.9338 0.616 420.9338 27.525 414.9288 27.525 414.9288 16.938 404.2268 16.938 404.2268 27.525 398.2208 27.525 398.2208 0.616 404.2268 0.616 404.2268 11.857 414.9288 11.857"></polygon>
            <polygon id="Fill-15" fill="#1C1C1A" mask="url(#mask-2)" points="447.92 0.616 453.926 0.616 453.926 27.525 447.92 27.525 435.101 10.664 435.101 27.525 429.095 27.525 429.095 0.616 434.716 0.616 447.92 17.939"></polygon>
            <path d="M469.1505,5.9862 C468.5735,6.4612 468.2845,7.0902 468.2845,7.8722 C468.2845,8.6552 468.6365,9.2772 469.3425,9.7392 C470.0485,10.2012 471.6785,10.7472 474.2325,11.3762 C476.7855,12.0052 478.7675,12.9482 480.1795,14.2052 C481.5905,15.4632 482.2975,17.2982 482.2975,19.7102 C482.2975,22.1232 481.3925,24.0792 479.5835,25.5812 C477.7735,27.0822 475.3925,27.8332 472.4425,27.8332 C468.1815,27.8332 464.3445,26.2542 460.9315,23.0982 L464.5115,18.7092 C467.4115,21.2502 470.0935,22.5202 472.5575,22.5202 C473.6605,22.5202 474.5265,22.2832 475.1555,21.8082 C475.7845,21.3332 476.0995,20.6922 476.0995,19.8832 C476.0995,19.0752 475.7655,18.4342 475.0985,17.9582 C474.4305,17.4842 473.1085,17.0032 471.1335,16.5152 C468.0015,15.7712 465.7115,14.8022 464.2615,13.6082 C462.8115,12.4152 462.0865,10.5422 462.0865,7.9882 C462.0865,5.4342 463.0035,3.4652 464.8385,2.0792 C466.6735,0.6932 468.9645,0.0002 471.7105,0.0002 C473.5065,0.0002 475.3035,0.3082 477.1005,0.9242 C478.8965,1.5402 480.4615,2.4122 481.7965,3.5412 L478.7555,7.9302 C476.4195,6.1592 474.0075,5.2742 471.5175,5.2742 C470.5175,5.2742 469.7275,5.5112 469.1505,5.9862" id="Fill-16" fill="#1C1C1A" mask="url(#mask-2)"></path>
            <path d="M509.5519,13.9165 C509.5519,11.5175 508.7819,9.4705 507.2419,7.7765 C505.7029,6.0825 503.8099,5.2355 501.5639,5.2355 C499.3179,5.2355 497.4259,6.0825 495.8859,7.7765 C494.3459,9.4705 493.5759,11.5175 493.5759,13.9165 C493.5759,16.3165 494.3459,18.3565 495.8859,20.0375 C497.4259,21.7185 499.3179,22.5585 501.5639,22.5585 C503.8099,22.5585 505.7029,21.7185 507.2419,20.0375 C508.7819,18.3565 509.5519,16.3165 509.5519,13.9165 M511.5919,23.8105 C508.8719,26.4665 505.5219,27.7945 501.5449,27.7945 C497.5659,27.7945 494.2169,26.4665 491.4969,23.8105 C488.7769,21.1535 487.4169,17.8495 487.4169,13.8975 C487.4169,9.9455 488.7769,6.6405 491.4969,3.9845 C494.2169,1.3285 497.5659,-0.0005 501.5449,-0.0005 C505.5219,-0.0005 508.8719,1.3285 511.5919,3.9845 C514.3119,6.6405 515.6729,9.9455 515.6729,13.8975 C515.6729,17.8495 514.3119,21.1535 511.5919,23.8105" id="Fill-17" fill="#1C1C1A" mask="url(#mask-2)"></path>
            <polygon id="Fill-18" fill="#1C1C1A" mask="url(#mask-2)" points="541.8889 0.616 547.8939 0.616 547.8939 27.525 541.8889 27.525 529.0699 10.664 529.0699 27.525 523.0639 27.525 523.0639 0.616 528.6849 0.616 541.8889 17.939"></polygon>
            <path d="M89.3929,50.4086 L86.6209,56.8026 L92.1329,56.8026 L89.3929,50.4086 Z M96.0389,65.8736 L93.9919,61.1176 L84.7629,61.1176 L82.7159,65.8736 L77.4869,65.8736 L86.9989,43.8566 L91.7549,43.8566 L101.2679,65.8736 L96.0389,65.8736 Z" id="Fill-19" fill="#1C1C1A" mask="url(#mask-2)"></path>
            <path d="M110.7642,48.251 C110.2912,48.64 110.0552,49.154 110.0552,49.794 C110.0552,50.435 110.3432,50.944 110.9212,51.322 C111.4992,51.7 112.8322,52.146 114.9222,52.661 C117.0112,53.176 118.6332,53.947 119.7882,54.976 C120.9432,56.005 121.5212,57.506 121.5212,59.48 C121.5212,61.454 120.7802,63.055 119.3002,64.283 C117.8202,65.512 115.8722,66.126 113.4572,66.126 C109.9712,66.126 106.8322,64.835 104.0392,62.252 L106.9682,58.661 C109.3412,60.74 111.5362,61.779 113.5512,61.779 C114.4542,61.779 115.1632,61.586 115.6782,61.197 C116.1922,60.808 116.4492,60.283 116.4492,59.622 C116.4492,58.96 116.1762,58.436 115.6312,58.047 C115.0842,57.659 114.0032,57.265 112.3862,56.866 C109.8242,56.257 107.9502,55.464 106.7642,54.488 C105.5772,53.511 104.9842,51.979 104.9842,49.889 C104.9842,47.8 105.7352,46.188 107.2362,45.054 C108.7372,43.92 110.6112,43.353 112.8582,43.353 C114.3282,43.353 115.7982,43.605 117.2682,44.109 C118.7382,44.613 120.0192,45.327 121.1112,46.251 L118.6232,49.842 C116.7122,48.393 114.7382,47.668 112.7012,47.668 C111.8822,47.668 111.2362,47.863 110.7642,48.251" id="Fill-20" fill="#1C1C1A" mask="url(#mask-2)"></path>
            <path d="M132.0248,48.251 C131.5518,48.64 131.3158,49.154 131.3158,49.794 C131.3158,50.435 131.6038,50.944 132.1818,51.322 C132.7598,51.7 134.0928,52.146 136.1828,52.661 C138.2718,53.176 139.8938,53.947 141.0488,54.976 C142.2038,56.005 142.7818,57.506 142.7818,59.48 C142.7818,61.454 142.0408,63.055 140.5608,64.283 C139.0798,65.512 137.1328,66.126 134.7178,66.126 C131.2318,66.126 128.0928,64.835 125.2998,62.252 L128.2288,58.661 C130.6018,60.74 132.7968,61.779 134.8118,61.779 C135.7148,61.779 136.4238,61.586 136.9388,61.197 C137.4528,60.808 137.7098,60.283 137.7098,59.622 C137.7098,58.96 137.4368,58.436 136.8918,58.047 C136.3448,57.659 135.2638,57.265 133.6468,56.866 C131.0848,56.257 129.2108,55.464 128.0248,54.488 C126.8378,53.511 126.2448,51.979 126.2448,49.889 C126.2448,47.8 126.9958,46.188 128.4968,45.054 C129.9978,43.92 131.8718,43.353 134.1188,43.353 C135.5888,43.353 137.0588,43.605 138.5288,44.109 C139.9988,44.613 141.2798,45.327 142.3718,46.251 L139.8838,49.842 C137.9728,48.393 135.9988,47.668 133.9618,47.668 C133.1428,47.668 132.4968,47.863 132.0248,48.251" id="Fill-21" fill="#1C1C1A" mask="url(#mask-2)"></path>
            <path d="M165.6168,54.7395 C165.6168,52.7765 164.9868,51.1015 163.7268,49.7155 C162.4668,48.3295 160.9178,47.6365 159.0808,47.6365 C157.2428,47.6365 155.6948,48.3295 154.4348,49.7155 C153.1748,51.1015 152.5448,52.7765 152.5448,54.7395 C152.5448,56.7035 153.1748,58.3725 154.4348,59.7475 C155.6948,61.1235 157.2428,61.8105 159.0808,61.8105 C160.9178,61.8105 162.4668,61.1235 163.7268,59.7475 C164.9868,58.3725 165.6168,56.7035 165.6168,54.7395 M167.2868,62.8345 C165.0598,65.0075 162.3198,66.0945 159.0648,66.0945 C155.8098,66.0945 153.0698,65.0075 150.8438,62.8345 C148.6178,60.6615 147.5058,57.9575 147.5058,54.7235 C147.5058,51.4905 148.6178,48.7865 150.8438,46.6135 C153.0698,44.4395 155.8098,43.3535 159.0648,43.3535 C162.3198,43.3535 165.0598,44.4395 167.2868,46.6135 C169.5118,48.7865 170.6248,51.4905 170.6248,54.7235 C170.6248,57.9575 169.5118,60.6615 167.2868,62.8345" id="Fill-22" fill="#1C1C1A" mask="url(#mask-2)"></path>
            <path d="M186.6884,61.5275 C189.1034,61.5275 191.0774,60.5725 192.6104,58.6615 L195.7604,61.9055 C193.2604,64.7195 190.3154,66.1265 186.9244,66.1265 C183.5334,66.1265 180.7404,65.0555 178.5464,62.9135 C176.3524,60.7715 175.2544,58.0685 175.2544,54.8025 C175.2544,51.5375 176.3734,48.8135 178.6094,46.6285 C180.8454,44.4455 183.5804,43.3535 186.8144,43.3535 C190.4264,43.3535 193.4494,44.7285 195.8864,47.4795 L192.8304,50.9445 C191.2764,49.0125 189.3444,48.0465 187.0354,48.0465 C185.1864,48.0465 183.6064,48.6505 182.2944,49.8575 C180.9824,51.0655 180.3264,52.6925 180.3264,54.7395 C180.3264,56.7875 180.9454,58.4305 182.1844,59.6685 C183.4234,60.9085 184.9244,61.5275 186.6884,61.5275" id="Fill-23" fill="#1C1C1A" mask="url(#mask-2)"></path>
            <polygon id="Fill-24" fill="#1C1C1A" mask="url(#mask-2)" points="201.429 65.874 206.343 65.874 206.343 43.857 201.429 43.857"></polygon>
            <path d="M222.5955,50.4086 L219.8235,56.8026 L225.3355,56.8026 L222.5955,50.4086 Z M229.2415,65.8736 L227.1945,61.1176 L217.9655,61.1176 L215.9185,65.8736 L210.6895,65.8736 L220.2015,43.8566 L224.9575,43.8566 L234.4705,65.8736 L229.2415,65.8736 Z" id="Fill-25" fill="#1C1C1A" mask="url(#mask-2)"></path>
            <polygon id="Fill-26" fill="#1C1C1A" mask="url(#mask-2)" points="246.8803 48.1093 246.8803 65.8743 241.9663 65.8743 241.9663 48.1093 235.7303 48.1093 235.7303 43.8573 253.1173 43.8573 253.1173 48.1093"></polygon>
            <polygon id="Fill-27" fill="#1C1C1A" mask="url(#mask-2)" points="273.7477 43.857 273.7477 48.235 262.7867 48.235 262.7867 52.771 272.6457 52.771 272.6457 56.96 262.7867 56.96 262.7867 61.527 274.0937 61.527 274.0937 65.874 257.8727 65.874 257.8727 43.857"></polygon>
            <path d="M286.0473,48.251 C285.5743,48.64 285.3383,49.154 285.3383,49.794 C285.3383,50.435 285.6273,50.944 286.2053,51.322 C286.7823,51.7 288.1153,52.146 290.2053,52.661 C292.2943,53.176 293.9163,53.947 295.0713,54.976 C296.2263,56.005 296.8043,57.506 296.8043,59.48 C296.8043,61.454 296.0633,63.055 294.5833,64.283 C293.1033,65.512 291.1553,66.126 288.7403,66.126 C285.2543,66.126 282.1153,64.835 279.3223,62.252 L282.2523,58.661 C284.6243,60.74 286.8193,61.779 288.8353,61.779 C289.7373,61.779 290.4463,61.586 290.9613,61.197 C291.4753,60.808 291.7323,60.283 291.7323,59.622 C291.7323,58.96 291.4593,58.436 290.9143,58.047 C290.3673,57.659 289.2863,57.265 287.6693,56.866 C285.1073,56.257 283.2333,55.464 282.0473,54.488 C280.8603,53.511 280.2673,51.979 280.2673,49.889 C280.2673,47.8 281.0183,46.188 282.5193,45.054 C284.0203,43.92 285.8953,43.353 288.1423,43.353 C289.6113,43.353 291.0813,43.605 292.5513,44.109 C294.0213,44.613 295.3023,45.327 296.3943,46.251 L293.9063,49.842 C291.9953,48.393 290.0213,47.668 287.9843,47.668 C287.1653,47.668 286.5203,47.863 286.0473,48.251" id="Fill-28" fill="#1C1C1A" mask="url(#mask-2)"></path>
            <path d="M342.1597,50.4086 L339.3877,56.8026 L344.8997,56.8026 L342.1597,50.4086 Z M348.8057,65.8736 L346.7587,61.1176 L337.5297,61.1176 L335.4827,65.8736 L330.2537,65.8736 L339.7657,43.8566 L344.5217,43.8566 L354.0347,65.8736 L348.8057,65.8736 Z" id="Fill-29" fill="#1C1C1A" mask="url(#mask-2)"></path>
            <path d="M370.3188,53.7789 C370.9278,53.2329 371.2318,52.3669 371.2318,51.1799 C371.2318,49.9939 370.9168,49.1799 370.2868,48.7389 C369.6568,48.2979 368.5548,48.0779 366.9798,48.0779 L363.2948,48.0779 L363.2948,54.5979 L366.8858,54.5979 C368.5658,54.5979 369.7098,54.3249 370.3188,53.7789 M376.2398,51.1649 C376.2398,54.6919 374.8438,56.9709 372.0508,57.9999 L377.6258,65.8739 L371.5788,65.8739 L366.6968,58.8499 L363.2948,58.8499 L363.2948,65.8739 L358.3808,65.8739 L358.3808,43.8569 L366.7278,43.8569 C370.1508,43.8569 372.5918,44.4349 374.0508,45.5899 C375.5108,46.7449 376.2398,48.6029 376.2398,51.1649" id="Fill-30" fill="#1C1C1A" mask="url(#mask-2)"></path>
            <path d="M391.926,61.5275 C394.34,61.5275 396.315,60.5725 397.848,58.6615 L400.997,61.9055 C398.498,64.7195 395.553,66.1265 392.162,66.1265 C388.771,66.1265 385.978,65.0555 383.784,62.9135 C381.589,60.7715 380.492,58.0685 380.492,54.8025 C380.492,51.5375 381.61,48.8135 383.847,46.6285 C386.083,44.4455 388.818,43.3535 392.052,43.3535 C395.663,43.3535 398.687,44.7285 401.123,47.4795 L398.068,50.9445 C396.514,49.0125 394.582,48.0465 392.272,48.0465 C390.424,48.0465 388.844,48.6505 387.532,49.8575 C386.219,51.0655 385.563,52.6925 385.563,54.7395 C385.563,56.7875 386.182,58.4305 387.422,59.6685 C388.661,60.9085 390.162,61.5275 391.926,61.5275" id="Fill-31" fill="#1C1C1A" mask="url(#mask-2)"></path>
            <polygon id="Fill-32" fill="#1C1C1A" mask="url(#mask-2)" points="420.3371 43.857 425.2501 43.857 425.2501 65.874 420.3371 65.874 420.3371 57.212 411.5811 57.212 411.5811 65.874 406.6671 65.874 406.6671 43.857 411.5811 43.857 411.5811 53.054 420.3371 53.054"></polygon>
            <polygon id="Fill-33" fill="#1C1C1A" mask="url(#mask-2)" points="432.463 65.874 437.377 65.874 437.377 43.857 432.463 43.857"></polygon>
            <polygon id="Fill-34" fill="#1C1C1A" mask="url(#mask-2)" points="453.9131 48.1093 453.9131 65.8743 448.9991 65.8743 448.9991 48.1093 442.7631 48.1093 442.7631 43.8573 460.1501 43.8573 460.1501 48.1093"></polygon>
            <polygon id="Fill-35" fill="#1C1C1A" mask="url(#mask-2)" points="481.4105 43.857 481.4105 48.235 470.4495 48.235 470.4495 52.771 480.3075 52.771 480.3075 56.96 470.4495 56.96 470.4495 61.527 481.7565 61.527 481.7565 65.874 465.5355 65.874 465.5355 43.857"></polygon>
            <path d="M496.781,61.5275 C499.196,61.5275 501.17,60.5725 502.703,58.6615 L505.853,61.9055 C503.353,64.7195 500.408,66.1265 497.017,66.1265 C493.626,66.1265 490.833,65.0555 488.639,62.9135 C486.445,60.7715 485.347,58.0685 485.347,54.8025 C485.347,51.5375 486.466,48.8135 488.702,46.6285 C490.938,44.4455 493.673,43.3535 496.907,43.3535 C500.519,43.3535 503.542,44.7285 505.979,47.4795 L502.923,50.9445 C501.369,49.0125 499.437,48.0465 497.128,48.0465 C495.279,48.0465 493.699,48.6505 492.387,49.8575 C491.075,51.0655 490.419,52.6925 490.419,54.7395 C490.419,56.7875 491.038,58.4305 492.277,59.6685 C493.516,60.9085 495.017,61.5275 496.781,61.5275" id="Fill-36" fill="#1C1C1A" mask="url(#mask-2)"></path>
            <polygon id="Fill-37" fill="#1C1C1A" mask="url(#mask-2)" points="520.8454 48.1093 520.8454 65.8743 515.9314 65.8743 515.9314 48.1093 509.6954 48.1093 509.6954 43.8573 527.0824 43.8573 527.0824 48.1093"></polygon>
            <path d="M536.9875,48.251 C536.5155,48.64 536.2785,49.154 536.2785,49.794 C536.2785,50.435 536.5675,50.944 537.1455,51.322 C537.7225,51.7 539.0555,52.146 541.1455,52.661 C543.2345,53.176 544.8565,53.947 546.0115,54.976 C547.1665,56.005 547.7445,57.506 547.7445,59.48 C547.7445,61.454 547.0035,63.055 545.5235,64.283 C544.0435,65.512 542.0955,66.126 539.6805,66.126 C536.1945,66.126 533.0555,64.835 530.2625,62.252 L533.1925,58.661 C535.5645,60.74 537.7595,61.779 539.7755,61.779 C540.6775,61.779 541.3865,61.586 541.9015,61.197 C542.4155,60.808 542.6725,60.283 542.6725,59.622 C542.6725,58.96 542.3995,58.436 541.8545,58.047 C541.3075,57.659 540.2265,57.265 538.6095,56.866 C536.0475,56.257 534.1735,55.464 532.9875,54.488 C531.8005,53.511 531.2075,51.979 531.2075,49.889 C531.2075,47.8 531.9585,46.188 533.4595,45.054 C534.9615,43.92 536.8355,43.353 539.0825,43.353 C540.5515,43.353 542.0215,43.605 543.4915,44.109 C544.9615,44.613 546.2425,45.327 547.3345,46.251 L544.8465,49.842 C542.9355,48.393 540.9615,47.668 538.9245,47.668 C538.1055,47.668 537.4605,47.863 536.9875,48.251" id="Fill-38" fill="#1C1C1A" mask="url(#mask-2)"></path>
            <path d="M33.8777,66.8191 L33.8777,1.1861 L60.9797,1.1861 L60.9797,42.0031 C60.9797,67.5981 33.8777,66.8191 33.8777,66.8191" id="Fill-39" fill="#AF1E23" mask="url(#mask-2)"></path>
            <path d="M27.1022,1.1887 L27.1022,66.8217 L0.0002,66.8217 L0.0002,26.0047 C0.0002,0.4097 27.1022,1.1887 27.1022,1.1887" id="Fill-40" fill="#AF1E23" mask="url(#mask-2)"></path>
            <polygon id="Fill-41" fill="#1C1C1A" mask="url(#mask-2)" points="313.062 68.254 316.633 68.254 316.633 41.668 313.062 41.668"></polygon>
        </g>
    </g>
</svg>