<svg width="400" height="400" viewBox="0 0 400 400" xmlns="http://www.w3.org/2000/svg"><title>Page 1</title><path d="M199.926 250.005c-6.085 0-11.02 4.932-11.02 11.018 0 6.085 4.935 11.02 11.02 11.02 6.086 0 11.019-4.935 11.019-11.02 0-6.086-4.933-11.018-11.019-11.018zm-43.96-10.908h87.918V126.158h-87.918v112.94zm104.946 31.047c0 10.895-8.83 19.727-19.725 19.727h-82.52c-10.896 0-19.729-8.832-19.729-19.727V127.819c0-10.895 8.833-19.728 19.729-19.728h82.52c10.894 0 19.725 8.833 19.725 19.728v142.325zM199.923 0C89.515 0 0 89.507 0 199.927 0 310.34 89.515 399.844 199.923 399.844c110.414 0 199.928-89.505 199.928-199.917C399.85 89.507 310.337 0 199.923 0z" fill-rule="evenodd"/></svg>