<svg width="400" height="400" viewBox="0 0 400 400" xmlns="http://www.w3.org/2000/svg"><title>Page 1</title><path d="M199.925 289.476s-62.559-81.327-62.559-116.181c0-34.855 27.705-62.56 62.56-62.56 34.854 0 62.558 27.705 62.558 62.56 0 34.854-62.559 116.18-62.559 116.18M199.923 0C89.515 0 0 89.507 0 199.927c0 110.412 89.515 199.917 199.923 199.917 110.414 0 199.927-89.505 199.927-199.917C399.85 89.507 310.337 0 199.923 0m.002 146.484c-15.193 0-26.81 11.618-26.81 26.81 0 15.194 11.617 26.812 26.81 26.812 15.193 0 26.811-11.618 26.811-26.811s-11.618-26.811-26.81-26.811" fill-rule="evenodd"/></svg>