<svg width="400" height="400" viewBox="0 0 400 400" xmlns="http://www.w3.org/2000/svg"><title>Page 1</title><path d="M283.913 233.59a20.4 20.4 0 0 1-1.507 7.658 7.163 7.163 0 0 0-1.98-1.4c-4.302-3.492-24.175-23.743-42.634-43.09l45.758-44.4c.21 1.175.363 2.37.363 3.605v77.628zm-20.63 20.637h-126.72c-3.348 0-6.466-.876-9.262-2.287l45.785-45.4 22.38 21.502a7.25 7.25 0 0 0 5.043 2.03c1.827 0 3.653-.68 5.068-2.055l21.763-21.116c27.644 29.044 39.139 40.864 45.143 45.065-2.783 1.401-5.874 2.26-9.2 2.26zM115.93 233.59v-77.628c0-1.359.15-2.672.395-3.956l46.264 44.448-45.162 44.776c-.942-2.366-1.497-4.939-1.497-7.64zm20.634-98.263h126.72c4.798 0 9.147 1.7 12.65 4.444-.305.219-.66.34-.939.61L200.48 212.68l-75.277-72.325c-.329-.327-.749-.468-1.129-.718 3.477-2.664 7.773-4.308 12.489-4.308zM199.918 0C89.501 0 0 89.506 0 199.922c0 110.423 89.501 199.922 199.918 199.922 110.419 0 199.922-89.5 199.922-199.922C399.84 89.506 310.337 0 199.918 0z" fill-rule="evenodd"/></svg>