<svg width="548" height="69" viewBox="0 0 548 69" xmlns="http://www.w3.org/2000/svg"><title>Page 1</title><path d="M92.061 12.742c.744-.667 1.116-1.726 1.116-3.176 0-1.45-.384-2.445-1.154-2.983-.77-.54-2.118-.809-4.043-.809h-4.504v7.97h4.39c2.052 0 3.45-.334 4.195-1.002zm7.237-3.195c0 4.311-1.707 7.096-5.119 8.354l6.813 9.624h-7.39l-5.968-8.585h-4.158v8.585h-6.005V.616h10.201c4.183 0 7.167.706 8.951 2.117 1.783 1.412 2.675 3.683 2.675 6.814zm8.47 17.978h6.005V.616h-6.005zm27.293-5.313c2.951 0 5.364-1.166 7.237-3.503l3.85 3.965c-3.054 3.44-6.654 5.16-10.798 5.16-4.145 0-7.559-1.31-10.24-3.927-2.683-2.619-4.023-5.922-4.023-9.914 0-3.99 1.366-7.32 4.1-9.99C127.92 1.336 131.263 0 135.215 0c4.414 0 8.11 1.681 11.087 5.043l-3.734 4.234c-1.9-2.36-4.26-3.54-7.084-3.54-2.258 0-4.19.737-5.793 2.212-1.604 1.476-2.406 3.466-2.406 5.967 0 2.503.756 4.511 2.271 6.026 1.514 1.514 3.35 2.27 5.505 2.27M169.9.616h6.005v26.909H169.9V16.938h-10.702v10.587h-6.006V.616h6.006v11.241H169.9zm25.985 8.007l-3.388 7.815h6.737l-3.349-7.815zm8.123 18.902l-2.502-5.813h-11.28l-2.502 5.813h-6.39L192.958.616h5.813l11.626 26.91h-6.39zm26.37-14.783c.744-.667 1.116-1.726 1.116-3.176 0-1.45-.385-2.445-1.155-2.983-.77-.54-2.117-.809-4.042-.809h-4.504v7.97h4.39c2.052 0 3.45-.334 4.195-1.002m7.237-3.195c0 4.311-1.707 7.096-5.12 8.354l6.814 9.624h-7.39l-5.968-8.585h-4.158v8.585h-6.005V.616h10.201c4.183 0 7.167.706 8.951 2.117 1.783 1.412 2.675 3.683 2.675 6.814m24.619 10.587c1.475-1.386 2.213-3.4 2.213-6.044 0-2.643-.738-4.677-2.213-6.102-1.476-1.424-3.741-2.136-6.795-2.136h-3.35v16.36h3.812c2.746 0 4.857-.692 6.333-2.078m4.408-15.995c2.566 2.348 3.85 5.614 3.85 9.797 0 4.184-1.252 7.494-3.754 9.932-2.502 2.439-6.32 3.657-11.453 3.657h-9.2V.615h9.508c4.799 0 8.482 1.175 11.049 3.524m23.79 23.386V.616h6.005v21.558h11.473v5.351zm24.002-.674c-.654-.654-.98-1.456-.98-2.406 0-.949.326-1.752.98-2.406.654-.655 1.456-.982 2.406-.982.95 0 1.752.327 2.406.982.655.654.982 1.457.982 2.406 0 .95-.327 1.752-.982 2.406-.654.654-1.457.982-2.406.982-.95 0-1.752-.328-2.406-.982M341.44 5.774V.615h14.012V18.17c0 3.208-.828 5.608-2.483 7.2-1.656 1.59-3.78 2.386-6.37 2.386-3.235 0-6.059-1.244-8.47-3.735l3.118-4.31c1.616 1.745 3.31 2.617 5.081 2.617.847 0 1.572-.328 2.175-.982.603-.654.905-1.636.905-2.945V5.774h-7.969zm43.27 8.142c0-2.399-.77-4.446-2.31-6.14s-3.434-2.54-5.679-2.54c-2.246 0-4.138.846-5.678 2.54s-2.31 3.742-2.31 6.14c0 2.4.77 4.44 2.31 6.122 1.54 1.68 3.432 2.52 5.678 2.52 2.245 0 4.138-.84 5.678-2.52 1.54-1.681 2.31-3.721 2.31-6.122m2.04 9.895c-2.72 2.655-6.07 3.983-10.047 3.983-3.979 0-7.328-1.328-10.048-3.983-2.72-2.657-4.08-5.962-4.08-9.913 0-3.953 1.36-7.257 4.08-9.913 2.72-2.656 6.07-3.986 10.048-3.986 3.977 0 7.327 1.33 10.047 3.986 2.72 2.656 4.081 5.96 4.081 9.913 0 3.951-1.36 7.256-4.08 9.913M414.929.616h6.005v26.909h-6.005V16.938h-10.702v10.587h-6.006V.616h6.006v11.241h10.702zm32.991 0h6.006v26.909h-6.006l-12.819-16.861v16.861h-6.006V.616h5.621l13.204 17.323zm21.23 5.37c-.576.475-.865 1.104-.865 1.886 0 .783.351 1.405 1.057 1.867.707.462 2.337 1.008 4.89 1.637 2.553.63 4.535 1.572 5.947 2.83 1.412 1.257 2.119 3.092 2.119 5.504 0 2.413-.906 4.37-2.714 5.871-1.81 1.501-4.192 2.252-7.142 2.252-4.26 0-8.098-1.579-11.51-4.735l3.58-4.389c2.9 2.541 5.582 3.811 8.046 3.811 1.103 0 1.969-.237 2.598-.712.628-.475.943-1.116.943-1.925 0-.808-.334-1.449-1-1.925-.668-.474-1.99-.955-3.965-1.443-3.132-.744-5.423-1.713-6.873-2.907-1.45-1.193-2.175-3.066-2.175-5.62 0-2.554.917-4.523 2.752-5.909C466.673.693 468.964 0 471.712 0c1.796 0 3.592.308 5.39.924 1.796.616 3.36 1.488 4.695 2.617l-3.04 4.39c-2.336-1.772-4.748-2.657-7.238-2.657-1 0-1.79.237-2.367.712m40.4 7.93c0-2.399-.77-4.446-2.31-6.14s-3.432-2.54-5.678-2.54-4.138.846-5.678 2.54-2.31 3.742-2.31 6.14c0 2.4.77 4.44 2.31 6.122 1.54 1.68 3.432 2.52 5.678 2.52s4.139-.84 5.678-2.52c1.54-1.681 2.31-3.721 2.31-6.122m2.04 9.895c-2.72 2.655-6.07 3.983-10.047 3.983-3.98 0-7.328-1.328-10.048-3.983-2.72-2.657-4.08-5.962-4.08-9.913 0-3.953 1.36-7.257 4.08-9.913 2.72-2.656 6.069-3.986 10.048-3.986 3.977 0 7.327 1.33 10.047 3.986 2.72 2.656 4.08 5.96 4.08 9.913 0 3.951-1.36 7.256-4.08 9.913M541.889.616h6.005v26.909h-6.005l-12.82-16.861v16.861h-6.005V.616h5.62l13.205 17.323zM89.393 50.409l-2.772 6.394h5.512l-2.74-6.394zm6.646 15.465l-2.047-4.756h-9.23l-2.046 4.756h-5.23L87 43.857h4.756l9.513 22.017h-5.23zm14.725-17.623c-.473.389-.709.903-.709 1.543 0 .641.288 1.15.866 1.528.578.378 1.911.824 4.001 1.339 2.09.515 3.711 1.286 4.866 2.315 1.155 1.029 1.733 2.53 1.733 4.504 0 1.974-.74 3.575-2.22 4.803-1.48 1.229-3.429 1.843-5.844 1.843-3.486 0-6.625-1.291-9.418-3.874l2.93-3.591c2.372 2.079 4.567 3.118 6.582 3.118.903 0 1.612-.193 2.127-.582.514-.389.771-.914.771-1.575 0-.662-.273-1.186-.818-1.575-.547-.388-1.628-.782-3.245-1.181-2.562-.609-4.436-1.402-5.622-2.378-1.187-.977-1.78-2.509-1.78-4.599 0-2.089.751-3.701 2.252-4.835s3.375-1.701 5.622-1.701c1.47 0 2.94.252 4.41.756 1.47.504 2.751 1.218 3.843 2.142l-2.488 3.591c-1.91-1.449-3.885-2.174-5.922-2.174-.819 0-1.465.195-1.937.583m21.261 0c-.473.389-.71.903-.71 1.543 0 .641.289 1.15.867 1.528.578.378 1.91.824 4 1.339s3.712 1.286 4.867 2.315c1.155 1.029 1.733 2.53 1.733 4.504 0 1.974-.741 3.575-2.221 4.803-1.481 1.229-3.428 1.843-5.843 1.843-3.486 0-6.625-1.291-9.418-3.874l2.929-3.591c2.373 2.079 4.568 3.118 6.583 3.118.903 0 1.612-.193 2.127-.582.514-.389.77-.914.77-1.575 0-.662-.272-1.186-.817-1.575-.547-.388-1.628-.782-3.245-1.181-2.562-.609-4.436-1.402-5.622-2.378-1.187-.977-1.78-2.509-1.78-4.599 0-2.089.75-3.701 2.252-4.835 1.5-1.134 3.375-1.701 5.622-1.701 1.47 0 2.94.252 4.41.756 1.47.504 2.75 1.218 3.843 2.142l-2.488 3.591c-1.911-1.449-3.885-2.174-5.922-2.174-.82 0-1.465.195-1.937.583m33.592 6.489c0-1.964-.63-3.639-1.89-5.025-1.26-1.386-2.81-2.079-4.646-2.079-1.838 0-3.386.694-4.646 2.08-1.26 1.386-1.89 3.06-1.89 5.023 0 1.965.63 3.634 1.89 5.009 1.26 1.376 2.808 2.063 4.646 2.063 1.837 0 3.386-.688 4.646-2.063 1.26-1.375 1.89-3.044 1.89-5.008m1.67 8.094c-2.227 2.173-4.967 3.26-8.222 3.26s-5.995-1.087-8.221-3.26-3.338-4.877-3.338-8.11c0-3.233 1.112-5.938 3.338-8.11 2.226-2.174 4.966-3.26 8.22-3.26 3.256 0 5.996 1.086 8.223 3.26 2.225 2.172 3.338 4.877 3.338 8.11 0 3.234-1.113 5.938-3.338 8.11m19.401-1.306c2.415 0 4.39-.956 5.922-2.867l3.15 3.245c-2.5 2.813-5.445 4.22-8.836 4.22-3.39 0-6.184-1.07-8.378-3.213-2.194-2.141-3.292-4.844-3.292-8.11 0-3.265 1.12-5.99 3.355-8.174 2.236-2.183 4.971-3.276 8.205-3.276 3.612 0 6.635 1.375 9.072 4.127l-3.056 3.465c-1.554-1.932-3.486-2.898-5.795-2.898-1.849 0-3.429.604-4.74 1.81-1.313 1.209-1.969 2.836-1.969 4.883s.62 3.69 1.858 4.928c1.24 1.24 2.74 1.86 4.504 1.86m14.741 4.346h4.914V43.857h-4.914zm21.166-15.465l-2.772 6.394h5.512l-2.74-6.394zm6.647 15.465l-2.047-4.756h-9.23l-2.047 4.756h-5.228l9.512-22.017h4.756l9.512 22.017h-5.228zM246.88 48.11v17.764h-4.914V48.11h-6.236v-4.252h17.387v4.252zm26.868-4.253v4.378h-10.961v4.536h9.859v4.189h-9.86v4.567h11.308v4.347h-16.221V43.857zm12.299 4.394c-.473.389-.709.903-.709 1.543 0 .641.29 1.15.867 1.528.577.378 1.91.824 4 1.339s3.711 1.286 4.866 2.315c1.155 1.029 1.733 2.53 1.733 4.504 0 1.974-.74 3.575-2.22 4.803-1.48 1.229-3.429 1.843-5.844 1.843-3.486 0-6.625-1.291-9.418-3.874l2.93-3.591c2.372 2.079 4.567 3.118 6.583 3.118.902 0 1.611-.193 2.126-.582.514-.389.771-.914.771-1.575 0-.662-.273-1.186-.818-1.575-.547-.388-1.628-.782-3.245-1.181-2.562-.609-4.436-1.402-5.622-2.378-1.187-.977-1.78-2.509-1.78-4.599 0-2.089.751-3.701 2.252-4.835s3.376-1.701 5.623-1.701c1.47 0 2.94.252 4.41.756 1.47.504 2.75 1.218 3.842 2.142l-2.488 3.591c-1.91-1.449-3.885-2.174-5.922-2.174-.819 0-1.464.195-1.937.583m56.113 2.158l-2.772 6.394h5.512l-2.74-6.394zm6.646 15.465l-2.047-4.756h-9.23l-2.046 4.756h-5.23l9.513-22.017h4.756l9.513 22.017h-5.23zm21.513-12.095c.609-.546.913-1.412.913-2.6 0-1.185-.315-2-.945-2.44-.63-.441-1.732-.661-3.307-.661h-3.685v6.52h3.59c1.68 0 2.825-.273 3.434-.82m5.92-2.613c0 3.527-1.395 5.806-4.188 6.835l5.575 7.874h-6.047l-4.882-7.024h-3.402v7.024h-4.914V43.857h8.347c3.423 0 5.864.578 7.323 1.733 1.46 1.155 2.189 3.013 2.189 5.575m15.686 10.363c2.414 0 4.389-.956 5.922-2.867l3.149 3.245c-2.499 2.813-5.444 4.22-8.835 4.22-3.391 0-6.184-1.07-8.378-3.213-2.195-2.141-3.292-4.844-3.292-8.11 0-3.265 1.118-5.99 3.355-8.174 2.236-2.183 4.971-3.276 8.205-3.276 3.611 0 6.635 1.375 9.071 4.127l-3.055 3.465c-1.554-1.932-3.486-2.898-5.796-2.898-1.848 0-3.428.604-4.74 1.81-1.313 1.209-1.969 2.836-1.969 4.883s.619 3.69 1.859 4.928c1.239 1.24 2.74 1.86 4.504 1.86m28.411-17.671h4.913v22.017h-4.913v-8.662h-8.756v8.662h-4.914V43.857h4.914v9.197h8.756zm12.126 22.017h4.914V43.857h-4.914zm21.45-17.764v17.764H449V48.11h-6.236v-4.252h17.387v4.252zm27.497-4.253v4.378h-10.96v4.536h9.858v4.189h-9.858v4.567h11.307v4.347h-16.221V43.857zm15.371 17.671c2.415 0 4.389-.956 5.922-2.867l3.15 3.245c-2.5 2.813-5.445 4.22-8.836 4.22s-6.184-1.07-8.378-3.213c-2.194-2.141-3.292-4.844-3.292-8.11 0-3.265 1.119-5.99 3.355-8.174 2.236-2.183 4.971-3.276 8.205-3.276 3.612 0 6.635 1.375 9.072 4.127l-3.056 3.465c-1.554-1.932-3.486-2.898-5.795-2.898-1.849 0-3.429.604-4.741 1.81-1.312 1.209-1.968 2.836-1.968 4.883s.619 3.69 1.858 4.928c1.239 1.24 2.74 1.86 4.504 1.86m24.064-13.418v17.764h-4.914V48.11h-6.236v-4.252h17.387v4.252zm16.142.141c-.471.389-.708.903-.708 1.543 0 .641.288 1.15.866 1.528.577.378 1.91.824 4 1.339s3.712 1.286 4.866 2.315c1.156 1.029 1.734 2.53 1.734 4.504 0 1.974-.741 3.575-2.221 4.803-1.48 1.229-3.428 1.843-5.843 1.843-3.487 0-6.625-1.291-9.418-3.874l2.93-3.591c2.371 2.079 4.567 3.118 6.582 3.118.903 0 1.611-.193 2.127-.582.513-.389.77-.914.77-1.575 0-.662-.273-1.186-.817-1.575-.548-.388-1.629-.782-3.245-1.181-2.563-.609-4.437-1.402-5.623-2.378-1.186-.977-1.78-2.509-1.78-4.599 0-2.089.751-3.701 2.253-4.835 1.501-1.134 3.375-1.701 5.622-1.701 1.47 0 2.94.252 4.41.756 1.47.504 2.75 1.218 3.843 2.142l-2.489 3.591c-1.91-1.449-3.885-2.174-5.922-2.174-.818 0-1.463.195-1.937.583M33.878 66.82V1.185H60.98v40.817c0 25.595-27.102 24.816-27.102 24.816M27.102 1.189v65.633H0V26.005C0 .41 27.102 1.189 27.102 1.189m285.96 67.065h3.571V41.668h-3.571z" fill="#FFF" fill-rule="evenodd"/></svg>