<svg data-name="Layer 1" xmlns="http://www.w3.org/2000/svg" viewBox="0 0 548 68.27"><title>logo-black</title><path d="M99.32 9.55q0 6.47-5.12 8.36l6.8 9.62h-7.38l-6-8.59h-4.13v8.59h-6V.62h10.2q6.28 0 9 2.12t2.63 6.81zm-7.24 3.2a4.07 4.07 0 0 0 1.12-3.18 3.4 3.4 0 0 0-1.16-3 7.39 7.39 0 0 0-4-.81h-4.55v8h4.39q3.12-.01 4.2-1.02zM107.79.62h6v26.91h-6zm27.3 21.6a8.86 8.86 0 0 0 7.24-3.5l3.85 4a14.53 14.53 0 0 1-21 1.23 13.27 13.27 0 0 1-4-9.91 13.4 13.4 0 0 1 4.1-10 13.81 13.81 0 0 1 10-4 14.22 14.22 0 0 1 11.09 5l-3.77 4.24a8.75 8.75 0 0 0-7.09-3.54A8.26 8.26 0 0 0 129.72 8a7.71 7.71 0 0 0-2.41 6 8.14 8.14 0 0 0 2.27 6 7.5 7.5 0 0 0 5.51 2.22zM169.93.62h6v26.91h-6V16.94h-10.7v10.59h-6V.62h6v11.24h10.7zM204 27.53l-2.5-5.81h-11.24l-2.5 5.81h-6.39L193 .62h5.81l11.63 26.91zm-8.08-18.91l-3.39 7.82h6.74zm41.74.93q0 6.47-5.12 8.36l6.82 9.63H232l-6-8.59h-4.16v8.59h-6V.62H226q6.28 0 9 2.12t2.66 6.81zm-7.24 3.2a4.07 4.07 0 0 0 1.12-3.18 3.4 3.4 0 0 0-1.16-3 7.39 7.39 0 0 0-4-.81h-4.5v8h4.39q3.04-.01 4.15-1.02zm36.27-8.61q3.85 3.52 3.85 9.8t-3.75 9.93q-3.75 3.66-11.45 3.66h-9.2V.62h9.51q7.19 0 11.04 3.52zm-4.41 16a7.9 7.9 0 0 0 2.21-6A8.09 8.09 0 0 0 262.28 8q-2.21-2.14-6.8-2.14h-3.35v16.36H256a8.91 8.91 0 0 0 6.28-2.08zm28.21 7.39V.62h6v21.56H308v5.35zm24-.67a3.44 3.44 0 1 1 2.41 1 3.27 3.27 0 0 1-2.41-1zm27.02-21.08V.62h14v17.55q0 4.81-2.48 7.2a8.82 8.82 0 0 1-6.37 2.39 11.43 11.43 0 0 1-8.47-3.76l3.12-4.31a7 7 0 0 0 5.08 2.62 2.86 2.86 0 0 0 2.18-1 4.22 4.22 0 0 0 .9-2.95V5.78zm45.31 18.03a14.66 14.66 0 0 1-20.1 0 13.29 13.29 0 0 1-4.08-9.91 13.3 13.3 0 0 1 4.09-9.9 14.66 14.66 0 0 1 20.1 0 13.3 13.3 0 0 1 4.08 9.91 13.3 13.3 0 0 1-4.09 9.9zm-2-9.9a8.81 8.81 0 0 0-2.31-6.14 7.62 7.62 0 0 0-11.36 0 8.81 8.81 0 0 0-2.31 6.14 8.74 8.74 0 0 0 2.27 6.09 7.66 7.66 0 0 0 11.36 0 8.74 8.74 0 0 0 2.31-6.08zM415 .62h6v26.91h-6V16.94h-10.7v10.59h-6V.62h6v11.24H415zm33 0h6v26.91h-6l-12.82-16.86v16.86h-6V.62h5.62L448 17.94zM469.24 6a2.32 2.32 0 0 0-.87 1.89 2.13 2.13 0 0 0 1.06 1.87 19.35 19.35 0 0 0 4.89 1.64 13.77 13.77 0 0 1 5.95 2.83 7 7 0 0 1 2.12 5.51 7.27 7.27 0 0 1-2.71 5.87 10.82 10.82 0 0 1-7.14 2.25A16.53 16.53 0 0 1 461 23.1l3.58-4.39q4.35 3.81 8 3.81a4.22 4.22 0 0 0 2.6-.71 2.29 2.29 0 0 0 .94-1.93 2.24 2.24 0 0 0-1-1.93 13.08 13.08 0 0 0-4-1.44 17.24 17.24 0 0 1-6.87-2.91q-2.18-1.79-2.18-5.62a7 7 0 0 1 2.75-5.91A11.08 11.08 0 0 1 471.8 0a16.53 16.53 0 0 1 5.39.92 14.44 14.44 0 0 1 4.7 2.62l-3 4.39a11.85 11.85 0 0 0-7.24-2.66 3.62 3.62 0 0 0-2.41.73zm42.45 17.81a14.66 14.66 0 0 1-20.1 0 13.29 13.29 0 0 1-4.08-9.91 13.3 13.3 0 0 1 4.08-9.9 14.66 14.66 0 0 1 20.1 0 13.3 13.3 0 0 1 4.08 9.91 13.3 13.3 0 0 1-4.08 9.9zm-2-9.9a8.81 8.81 0 0 0-2.31-6.14 7.62 7.62 0 0 0-11.36 0 8.81 8.81 0 0 0-2.31 6.14A8.74 8.74 0 0 0 496 20a7.66 7.66 0 0 0 11.36 0 8.74 8.74 0 0 0 2.29-6.08zM542 .62h6v26.91h-6l-12.83-16.86v16.86h-6V.62h5.62L542 17.94zM96.06 65.89l-2-4.76h-9.28l-2 4.76H77.5l9.51-22h4.76l9.51 22zm-6.65-15.47l-2.77 6.4h5.51zm21.38-2.16a1.9 1.9 0 0 0-.71 1.54 1.74 1.74 0 0 0 .87 1.53 15.83 15.83 0 0 0 4 1.34 11.27 11.27 0 0 1 4.86 2.33 5.72 5.72 0 0 1 1.73 4.5 6 6 0 0 1-2.22 4.8 8.85 8.85 0 0 1-5.84 1.84 13.52 13.52 0 0 1-9.42-3.88l2.94-3.59q3.56 3.12 6.58 3.12a3.45 3.45 0 0 0 2.13-.58 1.87 1.87 0 0 0 .77-1.58 1.84 1.84 0 0 0-.82-1.58 10.71 10.71 0 0 0-3.24-1.18 14.11 14.11 0 0 1-5.62-2.38 5.62 5.62 0 0 1-1.8-4.59 5.7 5.7 0 0 1 2.25-4.84 9.06 9.06 0 0 1 5.62-1.7 13.53 13.53 0 0 1 4.41.76 11.82 11.82 0 0 1 3.84 2.14l-2.49 3.59a9.7 9.7 0 0 0-5.92-2.17 3 3 0 0 0-1.92.58zm21.26 0a1.9 1.9 0 0 0-.71 1.54 1.74 1.74 0 0 0 .87 1.53 15.83 15.83 0 0 0 4 1.34 11.27 11.27 0 0 1 4.87 2.33 5.72 5.72 0 0 1 1.73 4.5 6 6 0 0 1-2.22 4.8 8.85 8.85 0 0 1-5.84 1.84 13.52 13.52 0 0 1-9.42-3.88l2.93-3.59q3.56 3.12 6.58 3.12a3.45 3.45 0 0 0 2.13-.58 1.87 1.87 0 0 0 .77-1.58 1.84 1.84 0 0 0-.82-1.58 10.71 10.71 0 0 0-3.24-1.18A14.11 14.11 0 0 1 128 54.5a5.62 5.62 0 0 1-1.78-4.6 5.7 5.7 0 0 1 2.25-4.84 9.06 9.06 0 0 1 5.62-1.7 13.53 13.53 0 0 1 4.41.76 11.82 11.82 0 0 1 3.84 2.14l-2.49 3.59a9.7 9.7 0 0 0-5.85-2.17 3 3 0 0 0-1.95.58zm35.27 14.59a12 12 0 0 1-16.45 0 11.52 11.52 0 0 1 0-16.22 12 12 0 0 1 16.45 0 11.52 11.52 0 0 1 0 16.22zm-1.67-8.1a7.21 7.21 0 0 0-1.89-5 6.23 6.23 0 0 0-9.29 0 7.6 7.6 0 0 0 0 10 6.26 6.26 0 0 0 9.29 0 7.15 7.15 0 0 0 1.89-5zm21.07 6.79a7.25 7.25 0 0 0 5.92-2.87l3.15 3.24a11.89 11.89 0 0 1-17.22 1 10.86 10.86 0 0 1-3.29-8.11 11 11 0 0 1 3.36-8.18 11.3 11.3 0 0 1 8.21-3.28 11.63 11.63 0 0 1 9.07 4.13L192.87 51a7.16 7.16 0 0 0-5.8-2.9 6.76 6.76 0 0 0-4.74 1.81 6.31 6.31 0 0 0-2 4.88 6.66 6.66 0 0 0 1.86 4.93 6.13 6.13 0 0 0 4.53 1.82zm14.75-17.67h4.91v22h-4.91zm27.82 22.02l-2-4.76H218l-2 4.76h-5.23l9.51-22H225l9.51 22zm-6.65-15.47l-2.77 6.4h5.51zm24.29-2.3v17.77H242V48.12h-6.24v-4.25h17.39v4.25zm26.87-4.25v4.38h-11v4.54h9.86V57h-9.86v4.57h11.31v4.35h-16.19v-22zm12.3 4.39a1.9 1.9 0 0 0-.71 1.54 1.74 1.74 0 0 0 .87 1.53 15.83 15.83 0 0 0 4 1.34 11.27 11.27 0 0 1 4.87 2.33 5.72 5.72 0 0 1 1.73 4.5 6 6 0 0 1-2.22 4.8 8.86 8.86 0 0 1-5.84 1.84 13.52 13.52 0 0 1-9.42-3.88l2.93-3.59q3.56 3.12 6.58 3.12a3.45 3.45 0 0 0 2.13-.58 1.87 1.87 0 0 0 .77-1.58 1.84 1.84 0 0 0-.82-1.58 10.7 10.7 0 0 0-3.24-1.18 14.11 14.11 0 0 1-5.62-2.38 5.62 5.62 0 0 1-1.78-4.6 5.7 5.7 0 0 1 2.25-4.84 9.06 9.06 0 0 1 5.62-1.7 13.53 13.53 0 0 1 4.41.76 11.82 11.82 0 0 1 3.84 2.14l-2.45 3.6a9.7 9.7 0 0 0-6-2.17 3 3 0 0 0-1.9.58zm62.77 17.63l-2-4.76h-9.23l-2 4.76h-5.23l9.51-22h4.76l9.51 22zm-6.65-15.47l-2.77 6.4H345zm34.09.75q0 5.29-4.19 6.84l5.58 7.88h-6l-4.88-7h-3.4v7h-4.91v-22h8.35q5.13 0 7.32 1.73t2.13 5.55zm-5.92 2.61a3.33 3.33 0 0 0 .91-2.6 2.79 2.79 0 0 0-.95-2.44 6 6 0 0 0-3.31-.66h-3.69v6.52H367a5.28 5.28 0 0 0 3.39-.81zM392 61.54a7.25 7.25 0 0 0 5.92-2.87l3.15 3.24a11.89 11.89 0 0 1-17.22 1 10.86 10.86 0 0 1-3.29-8.11 11 11 0 0 1 3.36-8.18 11.3 11.3 0 0 1 8.21-3.28 11.63 11.63 0 0 1 9.07 4.13L398.14 51a7.16 7.16 0 0 0-5.8-2.9 6.76 6.76 0 0 0-4.74 1.81 6.31 6.31 0 0 0-2 4.88 6.66 6.66 0 0 0 1.86 4.93 6.13 6.13 0 0 0 4.54 1.82zm28.42-17.67h4.91v22h-4.91v-8.65h-8.76v8.66h-4.91v-22h4.91v9.2h8.76zm12.13 0h4.91v22h-4.91zM454 48.12v17.77h-4.91V48.12h-6.24v-4.25h17.39v4.25zm27.5-4.25v4.38h-11v4.54h9.86V57h-9.86v4.57h11.31v4.35h-16.18v-22zm15.38 17.67a7.25 7.25 0 0 0 5.92-2.87l3.2 3.25a11.89 11.89 0 0 1-17.22 1 10.86 10.86 0 0 1-3.29-8.11 11 11 0 0 1 3.36-8.18 11.3 11.3 0 0 1 8.15-3.27 11.63 11.63 0 0 1 9.07 4.13L503 51a7.16 7.16 0 0 0-5.8-2.9 6.76 6.76 0 0 0-4.74 1.81 6.31 6.31 0 0 0-2 4.88 6.66 6.66 0 0 0 1.86 4.93 6.13 6.13 0 0 0 4.56 1.82zm24.07-13.42v17.77H516V48.12h-6.24v-4.25h17.39v4.25zm16.14.14a1.9 1.9 0 0 0-.71 1.54 1.74 1.74 0 0 0 .87 1.53 15.84 15.84 0 0 0 4 1.34 11.27 11.27 0 0 1 4.87 2.33 5.72 5.72 0 0 1 1.73 4.5 6 6 0 0 1-2.22 4.8 8.86 8.86 0 0 1-5.84 1.84 13.52 13.52 0 0 1-9.42-3.88l2.93-3.59q3.56 3.12 6.58 3.12a3.45 3.45 0 0 0 2.13-.58 1.87 1.87 0 0 0 .77-1.58 1.84 1.84 0 0 0-.82-1.58 10.7 10.7 0 0 0-3.24-1.18 14.11 14.11 0 0 1-5.62-2.38 5.62 5.62 0 0 1-1.78-4.6 5.7 5.7 0 0 1 2.25-4.84 9.06 9.06 0 0 1 5.62-1.7 13.53 13.53 0 0 1 4.41.76 11.82 11.82 0 0 1 3.84 2.14l-2.44 3.6a9.7 9.7 0 0 0-6-2.17 3 3 0 0 0-1.91.58z" fill="#1d1d1b"/><path d="M33.88 66.83V1.19H61V42c0 25.61-27.12 24.83-27.12 24.83zM27.11 1.19v65.64H0V26C0 .41 27.11 1.19 27.11 1.19z"/><path d="M313.12 68.27V41.68h3.57v26.59z" fill="#1d1d1b"/></svg>